<svg xmlns="http://www.w3.org/2000/svg" viewBox="0 0 360 160" fill="none">
  <defs>
    <linearGradient id="bg" x1="26" y1="10" x2="342" y2="154" gradientUnits="userSpaceOnUse">
      <stop stop-color="#D3923B"/>
      <stop offset="1" stop-color="#145B79"/>
    </linearGradient>
    <linearGradient id="bottle" x1="113" y1="48" x2="200" y2="145" gradientUnits="userSpaceOnUse">
      <stop stop-color="#FFFDF5"/>
      <stop offset="1" stop-color="#E2F2F2"/>
    </linearGradient>
  </defs>
  <path fill="url(#bg)" d="M0 0h360v160H0z"/>
  <circle cx="41" cy="135" r="64" fill="#FFE7B5" fill-opacity=".12"/>
  <circle cx="342" cy="14" r="83" fill="#fff" fill-opacity=".1"/>
  <rect x="246" y="25" width="76" height="92" rx="12" fill="#fff" fill-opacity=".2"/>
  <rect x="255" y="36" width="58" height="72" rx="7" fill="#FFFDF5"/>
  <path d="M269 55h29M269 66h20" stroke="#547887" stroke-linecap="round" stroke-width="4"/>
  <path d="M269 86h8l5 6 12-14" stroke="#0D9488" stroke-linecap="round" stroke-linejoin="round" stroke-width="4"/>
  <rect x="119" y="37" width="62" height="20" rx="6" fill="#0B4D69"/>
  <rect x="126" y="30" width="48" height="17" rx="5" fill="#E8F4F1"/>
  <rect x="105" y="50" width="91" height="99" rx="20" fill="url(#bottle)"/>
  <rect x="116" y="78" width="69" height="43" rx="9" fill="#DDF5EF"/>
  <path d="M133 99c0-8 6-14 13-14s13 6 13 14-6 14-13 14-13-6-13-14Z" fill="#0D9488"/>
  <path d="M146 92v14M139 99h14" stroke="#fff" stroke-linecap="round" stroke-width="3"/>
  <g transform="rotate(26 69 69)">
    <rect x="34" y="60" width="73" height="31" rx="15.5" fill="#fff" fill-opacity=".9"/>
    <path d="M70.5 60v31" stroke="#0D6380" stroke-opacity=".5" stroke-width="2"/>
    <path d="M45 75.5h18" stroke="#0D6380" stroke-linecap="round" stroke-width="3"/>
  </g>
  <path d="m221 126 5 9 10 2-7 7 2 10-10-5-9 5 2-10-8-7 10-2 5-9Z" fill="#FFF5D9" fill-opacity=".9"/>
</svg>
